<svg width="490" height="204" viewBox="0 0 490 204" fill="none" xmlns="http://www.w3.org/2000/svg">
<path d="M209.5 24.5V4H4V199.5H209V178.5" stroke="#505050" stroke-width="8"/>
<path d="M440 137.689V134.383L442.3 134.096C445.079 133.712 447.187 133.281 448.624 132.802C450.158 132.227 451.212 131.029 451.787 129.209C452.362 127.292 452.649 124.178 452.649 119.865V89.9675C452.649 86.2303 452.122 83.4992 451.068 81.7743C450.11 80.0494 448.672 78.9953 446.756 78.612C444.839 78.1329 442.587 77.8933 440 77.8933V74.5873C443.929 74.5873 447.714 74.4436 451.355 74.1561C454.997 73.8686 458.782 73.4374 462.711 72.8624L461.13 89.3925H461.705C463.813 82.9722 466.4 78.4683 469.467 75.881C472.533 73.2937 475.839 72 479.385 72C483.409 72 486.093 73.0062 487.434 75.0185C488.776 76.9351 489.447 78.8037 489.447 80.6244C489.447 82.7326 488.824 84.4575 487.578 85.799C486.332 87.1406 484.655 87.8114 482.547 87.8114C480.535 87.8114 479.001 87.3323 477.947 86.374C476.893 85.4157 476.366 84.3137 476.366 83.068C476.366 82.1097 476.462 81.1994 476.654 80.3369C476.941 79.4745 477.085 78.8037 477.085 78.3246C477.085 77.3663 476.414 76.8872 475.073 76.8872C473.731 76.8872 472.294 77.51 470.76 78.7558C469.323 80.0015 468.077 81.7264 467.023 83.9304C466.161 85.7511 465.346 87.7635 464.58 89.9675C463.813 92.1715 463.19 94.5672 462.711 97.1545V119.865C462.711 124.178 462.998 127.292 463.573 129.209C464.148 131.029 465.155 132.227 466.592 132.802C468.125 133.281 470.281 133.712 473.06 134.096L475.36 134.383V137.689L457.68 137.258L440 137.689Z" fill="#0D46A7"/>
<path d="M402.479 138.839C396.155 138.839 390.644 137.498 385.949 134.814C381.253 132.035 377.564 128.25 374.881 123.459C372.294 118.572 371 113.014 371 106.785C371 100.077 372.437 94.136 375.312 88.9613C378.187 83.6909 382.02 79.5703 386.811 76.5997C391.699 73.5332 397.065 72 402.91 72C410.289 72 416.039 74.3478 420.159 79.0433C424.375 83.7388 426.484 89.9196 426.484 97.5857C426.484 98.7356 426.436 99.6939 426.34 100.461C426.244 101.227 426.148 101.754 426.052 102.042H382.643C382.547 103.383 382.499 104.725 382.499 106.066C382.499 111.145 383.314 115.889 384.943 120.297C386.572 124.609 389.015 128.059 392.274 130.646C395.627 133.233 399.7 134.527 404.491 134.527C408.995 134.527 412.972 133.281 416.422 130.79C419.967 128.202 422.698 124.417 424.615 119.434L428.065 120.728C424.04 132.802 415.511 138.839 402.479 138.839ZM402.91 75.5935C396.969 75.5935 392.321 77.7017 388.967 81.9181C385.709 86.1344 383.697 91.7403 382.93 98.7356H401.185C405.498 98.7356 408.756 98.2565 410.96 97.2982C413.26 96.2441 414.793 94.9984 415.559 93.561C416.422 92.0278 416.853 90.5425 416.853 89.1051C416.853 84.8887 415.416 81.5827 412.541 79.187C409.666 76.7913 406.456 75.5935 402.91 75.5935Z" fill="#0D46A7"/>
<path d="M319.179 138.793C313.717 138.793 308.782 137.307 304.374 134.337C299.966 131.366 296.468 127.341 293.881 122.263C291.294 117.088 290 111.386 290 105.157C290 98.9288 291.294 93.3229 293.881 88.3399C296.468 83.3569 300.014 79.3801 304.518 76.4095C309.022 73.4389 314.1 71.9535 319.754 71.9535C323.779 71.9535 327.468 72.816 330.822 74.5409C334.176 76.1699 336.955 78.0385 339.159 80.1467V49.6738C339.159 44.6909 338.105 41.5286 335.997 40.187C333.984 38.7496 331.158 38.0309 327.516 38.0309H326.51V34.7249C330.439 34.7249 334.224 34.629 337.865 34.4374C341.507 34.1499 345.292 33.6708 349.221 33V121.544C349.221 126.91 350.227 130.312 352.239 131.749C354.348 133.187 357.318 133.905 361.151 133.905V137.212H355.258C353.15 137.212 351.09 137.259 349.077 137.355C347.065 137.547 344.813 137.882 342.321 138.361L340.453 128.3C337.865 131.366 334.751 133.905 331.11 135.918C327.564 137.834 323.587 138.793 319.179 138.793ZM301.499 105.157C301.499 110.715 302.17 115.698 303.512 120.106C304.949 124.514 307.057 128.012 309.836 130.599C312.711 133.187 316.304 134.48 320.617 134.48C324.737 134.48 328.283 133.57 331.253 131.749C334.32 129.833 336.955 127.533 339.159 124.85V86.0401C337.53 83.5486 335.086 81.2966 331.828 79.2843C328.57 77.2719 324.977 76.2657 321.048 76.2657C316.64 76.2657 312.998 77.5594 310.124 80.1467C307.249 82.6382 305.093 86.088 303.655 90.496C302.218 94.8082 301.499 99.6954 301.499 105.157Z" fill="#0D46A7"/>
<path d="M212.468 169C209.312 169 206.945 168.216 205.367 166.648C203.789 165.172 203 163.512 203 161.667C203 159.822 203.696 158.254 205.089 156.963C206.388 155.764 208.059 155.164 210.101 155.164C211.401 155.164 212.422 155.349 213.165 155.718C213.907 156.179 214.603 156.64 215.253 157.101C215.903 157.563 216.646 158.024 217.481 158.485C218.316 159.038 219.291 159.315 220.405 159.315C222.076 159.315 223.793 158.669 225.557 157.378C227.413 156.087 229.316 153.412 231.266 149.353L240.456 129.707L217.342 79.3452C216.414 77.2237 215.392 75.4712 214.278 74.0877C213.165 72.7041 211.447 71.874 209.127 71.5973L205.924 71.1822V68L220.405 68.4151L234.468 68V71.1822L232.519 71.4589C228.62 72.0123 226.671 73.442 226.671 75.7479C226.671 76.8548 227.181 78.5151 228.203 80.7288L245.608 118.638L263.013 81.4205C264.034 79.1146 264.544 77.316 264.544 76.0247C264.544 73.5342 262.27 72.0123 257.722 71.4589L255.494 71.1822V68L268.861 68.4151L280 68V71.1822L277.911 71.4589C274.477 71.9201 271.97 73.1653 270.392 75.1945C268.907 77.2237 267.515 79.7142 266.215 82.6658L234.747 150.875C233.262 154.011 231.498 156.963 229.456 159.73C227.506 162.497 225.139 164.711 222.354 166.371C219.662 168.124 216.367 169 212.468 169Z" fill="#0D46A7"/>
<path d="M124 168V164.879L126.304 164.608C129.088 164.246 131.2 163.794 132.64 163.251C134.176 162.799 135.232 161.668 135.808 159.859C136.384 158.14 136.672 155.246 136.672 151.175V84.1465C136.672 80.8901 136.144 78.5382 135.088 77.0909C134.128 75.5531 132.688 74.6033 130.768 74.2415C128.848 73.7892 126.592 73.5631 124 73.5631V70.4423C127.936 70.4423 131.728 70.2614 135.376 69.8996C139.024 69.5378 142.816 69.0403 146.752 68.4071L145.744 77.6337C148.432 74.739 151.504 72.4324 154.96 70.7137C158.512 68.9046 162.448 68 166.768 68C172.336 68 177.28 69.4021 181.6 72.2062C186.016 75.0104 189.52 78.8096 192.112 83.6038C194.704 88.398 196 93.7802 196 99.7503C196 105.54 194.704 110.831 192.112 115.626C189.52 120.329 185.968 124.083 181.456 126.887C177.04 129.692 171.952 131.094 166.192 131.094C162.16 131.094 158.464 130.325 155.104 128.787C151.744 127.159 148.96 125.35 146.752 123.36V151.175C146.752 155.246 147.04 158.14 147.616 159.859C148.192 161.668 149.2 162.799 150.64 163.251C152.176 163.794 154.336 164.246 157.12 164.608L159.424 164.879V168L141.712 167.593L124 168ZM165.04 72.0706C161.104 72.0706 157.6 72.9751 154.528 74.7843C151.552 76.5029 148.96 78.6287 146.752 81.1615V117.796C148.384 120.148 150.832 122.274 154.096 124.174C157.36 126.073 160.96 127.023 164.896 127.023C169.312 127.023 172.96 125.847 175.84 123.495C178.72 121.053 180.88 117.796 182.32 113.726C183.76 109.565 184.48 104.906 184.48 99.7503C184.48 94.5038 183.76 89.8001 182.32 85.6391C180.88 81.4781 178.72 78.1764 175.84 75.7341C173.056 73.2917 169.456 72.0706 165.04 72.0706Z" fill="#0D46A7"/>
<path d="M79.4158 138.581C75.5827 138.581 72.085 137.958 68.9228 136.713C65.8563 135.467 63.0773 134.221 60.5858 132.975C58.4776 131.825 56.7049 130.963 55.2675 130.388C53.9259 129.813 52.728 129.526 51.674 129.526C50.3324 129.526 49.3741 130.1 48.7992 131.25C48.32 132.305 47.9367 133.502 47.6492 134.844L47.218 137H43.6245L44.3432 120.039L43.912 101.496H47.5055L49.0866 108.252C50.1407 112.468 52.0093 116.589 54.6925 120.614C57.4715 124.638 60.9212 127.944 65.0418 130.532C69.2581 133.119 74.0495 134.413 79.4158 134.413C82.3864 134.413 85.2133 133.79 87.8964 132.544C90.6754 131.202 92.9273 129.19 94.6522 126.507C96.4729 123.824 97.3833 120.326 97.3833 116.014C97.3833 109.594 95.2751 104.419 91.0587 100.49C86.9382 96.5612 81.1886 92.8239 73.8099 89.2783L67.7728 86.4035C60.5858 82.9538 55.2195 79.1686 51.674 75.0481C48.2242 70.8317 46.4993 65.4654 46.4993 58.9492C46.4993 53.8704 47.7451 49.3665 50.2366 45.4376C52.728 41.5087 56.1299 38.4423 60.4421 36.2383C64.8501 34.0343 69.881 32.9323 75.5348 32.9323C79.4637 32.9323 82.7697 33.4593 85.4529 34.5134C88.136 35.5675 90.2442 36.4778 91.7774 37.2445C94.2689 38.4902 96.2334 39.1131 97.6708 39.1131C99.204 39.1131 100.114 37.6278 100.402 34.6571H103.995L103.564 48.4562L103.852 62.3989H100.258C99.6831 57.0327 98.1978 52.4809 95.8021 48.7437C93.4065 44.9106 90.4838 41.9879 87.034 39.9755C83.6801 37.9632 80.0866 36.957 76.2535 36.957C70.5997 36.957 66 38.586 62.4545 41.8441C59.0047 45.1022 57.2798 49.2707 57.2798 54.3495C57.2798 59.8116 59.0526 64.1238 62.5982 67.2861C66.1438 70.3526 70.7435 73.2753 76.3972 76.0543L82.2906 78.9291C87.561 81.5164 92.0649 84.1995 95.8021 86.9785C99.6352 89.6616 102.558 92.8239 104.57 96.4653C106.678 100.107 107.733 104.659 107.733 110.121C107.733 115.774 106.439 120.757 103.852 125.07C101.36 129.382 97.9582 132.736 93.646 135.131C89.4297 137.431 84.6862 138.581 79.4158 138.581Z" fill="#0D46A7"/>
</svg>
